<svg id="visual" viewBox="0 0 960 540" width="960" height="540" xmlns="http://www.w3.org/2000/svg" xmlns:xlink="http://www.w3.org/1999/xlink" version="1.1"><rect x="0" y="0" width="960" height="540" fill="#9a9a9a"></rect><path d="M0 111L10 100C20 89 40 67 60 63.3C80 59.7 100 74.3 120 79C140 83.7 160 78.3 180 73C200 67.7 220 62.3 240 54.3C260 46.3 280 35.7 300 31.2C320 26.7 340 28.3 360 43C380 57.7 400 85.3 420 97.8C440 110.3 460 107.7 480 110.3C500 113 520 121 540 121.3C560 121.7 580 114.3 600 104.8C620 95.3 640 83.7 660 82C680 80.3 700 88.7 720 85.7C740 82.7 760 68.3 780 59.2C800 50 820 46 840 53C860 60 880 78 900 87.3C920 96.7 940 97.3 950 97.7L960 98L960 0L950 0C940 0 920 0 900 0C880 0 860 0 840 0C820 0 800 0 780 0C760 0 740 0 720 0C700 0 680 0 660 0C640 0 620 0 600 0C580 0 560 0 540 0C520 0 500 0 480 0C460 0 440 0 420 0C400 0 380 0 360 0C340 0 320 0 300 0C280 0 260 0 240 0C220 0 200 0 180 0C160 0 140 0 120 0C100 0 80 0 60 0C40 0 20 0 10 0L0 0Z" fill="#122e3d" stroke-linecap="round" stroke-linejoin="miter"></path></svg>